<?xml version="1.0" standalone="no"?>
<!DOCTYPE svg PUBLIC "-//W3C//DTD SVG 20010904//EN"
 "http://www.w3.org/TR/2001/REC-SVG-20010904/DTD/svg10.dtd">
<svg version="1.0" xmlns="http://www.w3.org/2000/svg"
 width="1508.000000pt" height="1508.000000pt" viewBox="0 0 1508.000000 1508.000000"
 preserveAspectRatio="xMidYMid meet">
<metadata>
Created by potrace 1.11, written by Peter Selinger 2001-2013
</metadata>
<g transform="translate(0.000000,1508.000000) scale(0.100000,-0.100000)"
fill="#000000" stroke="none">
<path d="M7183 14112 c-215 -213 -804 -796 -1308 -1297 -504 -500 -1049 -1040
-1210 -1200 -161 -159 -702 -696 -1202 -1191 -499 -496 -1044 -1036 -1210
-1200 -165 -165 -632 -627 -1037 -1029 l-737 -730 74 -70 c40 -38 138 -131
217 -205 79 -74 180 -169 224 -212 45 -42 96 -90 115 -106 l35 -30 174 177
c96 97 499 505 897 906 397 402 832 840 965 975 133 135 563 569 955 965 392
396 823 831 957 966 133 136 568 575 964 975 397 401 902 911 1123 1134 l400
405 362 -365 c198 -201 764 -772 1257 -1269 494 -497 1030 -1038 1192 -1201
162 -164 694 -700 1181 -1191 488 -492 1023 -1031 1189 -1199 166 -168 510
-515 765 -772 l464 -467 53 47 c29 26 60 54 68 62 9 8 54 49 101 90 46 41 93
84 104 95 12 11 59 54 106 95 46 41 91 82 99 90 8 8 36 34 61 56 l46 42 -3521
3521 c-1937 1937 -3523 3521 -3526 3521 -3 0 -181 -174 -397 -388z"/>
<path d="M12063 7026 c-4 -5 -6 -1232 -6 -2726 l0 -2717 -4501 1 -4501 1 -2
2685 c-1 1477 -3 2701 -3 2722 l0 36 -453 0 -454 0 0 -3209 0 -3209 116 0
c150 -1 10692 -1 10709 0 10 0 12 646 10 3212 l-3 3213 -453 0 c-264 0 -456
-4 -459 -9z"/>
</g>
</svg>
